<svg width="22" height="22" viewBox="0 0 22 22" fill="none" xmlns="http://www.w3.org/2000/svg" data-di-res-id="dd7c094-6efae91c" data-di-rand="1731319178409">
              <path d="M16.6536 5.34619C16.3995 5.09275 16.1108 4.91947 15.8069 4.78387L17.1654 3.48663C17.184 3.44863 17.2019 3.41021 17.2193 3.37141C17.2659 3.476 17.315 3.57516 17.3678 3.66836C17.6057 4.08896 17.9146 4.39788 18.3349 4.63628C18.4271 4.68856 18.5251 4.73737 18.6284 4.78362C18.5893 4.80108 18.5506 4.8191 18.5123 4.83777C17.9356 5.11887 17.5541 5.50096 17.2734 6.07721L18.1724 6.51511L17.2734 6.07722C17.2547 6.11554 17.2367 6.15428 17.2192 6.1934C17.0825 5.88922 16.9082 5.60013 16.6536 5.34619ZM2.07384 20.6584C2.26027 20.1992 2.41032 19.7037 2.51494 19.1953C2.77416 17.9358 2.78124 16.4692 2.26217 15.1268L2.25023 15.0959L2.23628 15.0659C1.66238 13.8312 1.34149 12.4543 1.34149 10.9998C1.34149 5.66554 5.66573 1.34131 10.9999 1.34131C11.8097 1.34131 12.5953 1.44076 13.3456 1.62788C13.3167 1.63623 13.2868 1.64482 13.2561 1.65365C12.9007 1.7557 12.579 1.90685 12.295 2.0986C11.8717 2.03749 11.4392 2.00592 10.9999 2.00592C6.03278 2.00592 2.0061 6.0326 2.0061 10.9998C2.0061 12.3556 2.30501 13.637 2.83896 14.7857L2.86219 14.8357L2.88206 14.8871C3.39062 16.2024 3.43916 17.6038 3.25222 18.8447L3.07913 19.9937L4.24107 19.9937L10.9999 19.9936C15.967 19.9936 19.9938 15.9669 19.9938 10.9998C19.9938 10.5636 19.9627 10.1341 19.9024 9.71367C20.0982 9.42575 20.252 9.09871 20.3551 8.73696L19.4563 8.48089L20.3551 8.73696C20.3619 8.71311 20.3686 8.68983 20.3751 8.66708C20.5601 9.41345 20.6584 10.1946 20.6584 10.9998C20.6584 16.334 16.3342 20.6582 10.9999 20.6582L2.07384 20.6584ZM14.588 2.27393L14.5536 2.18688L14.588 2.27393ZM10.6598 8.41038C10.7771 8.11453 10.889 7.77682 11.005 7.39724C11.1193 7.77583 11.2295 8.1128 11.3454 8.40809C11.5528 8.93654 11.8055 9.40606 12.1995 9.80125C12.5935 10.1965 13.0624 10.4506 13.5907 10.6596C13.8868 10.7767 14.2248 10.8882 14.6047 11.0037C14.2254 11.118 13.8878 11.2284 13.592 11.3446C13.0636 11.5522 12.5943 11.8055 12.1998 12.2004C11.8055 12.5952 11.5528 13.0646 11.3454 13.5927C11.2296 13.8877 11.1194 14.2243 11.0052 14.6025C10.8892 14.2233 10.7774 13.886 10.6602 13.5904C10.4506 13.0623 10.1962 12.5936 9.80119 12.1995C9.40604 11.8054 8.93674 11.5524 8.40804 11.3448C8.11209 11.2285 7.7744 11.1181 7.39496 11.0038C7.77495 10.8882 8.11303 10.7767 8.40923 10.6596C8.93781 10.4506 9.40667 10.1966 9.80135 9.80211C10.1959 9.40768 10.4502 8.93887 10.6598 8.41038Z" fill="#FFFFFF" stroke="#FFFFFF" stroke-width="2"></path>
            </svg>